<svg width="829" height="191" viewBox="0 0 829 191" fill="none" xmlns="http://www.w3.org/2000/svg">
<path d="M0 14C0 7.92487 4.92487 3 11 3H79C92.8071 3 104 14.1929 104 28V119C104 132.807 92.8071 144 79 144H11C4.92487 144 0 139.075 0 133V14Z" fill="#FF7557"/>
<path d="M0 15.9639C0 12.5954 0 10.9111 0.388561 9.79407C1.52763 6.51943 4.89218 4.572 8.29905 5.21542C9.46121 5.4349 10.9216 6.27384 13.8425 7.9517L40.8613 23.4724C40.8912 23.4896 40.9062 23.4982 40.9165 23.5041C40.9543 23.5256 40.9657 23.532 41.0039 23.553C41.0142 23.5587 41.0366 23.571 41.0815 23.5956C42.1429 24.1759 50.64 28.889 56.8777 34.3981C63.2203 39.9999 67 46.2246 67 57.481C67 80.564 67 80.1114 67 80.1114V178.78V179.699C67 184.239 61.8577 186.61 58.3237 183.758C35.7816 165.57 25.4782 158.885 3.45384 141.272C2.64164 140.623 2.23553 140.298 1.89179 139.931C0.916738 138.89 0.27565 137.557 0.0718488 136.145C0 135.648 0 135.125 0 134.08L0 15.9639Z" fill="#FFA047"/>
<path fill-rule="evenodd" clip-rule="evenodd" d="M0 132.836V133.916C0 134.961 0 135.484 0.0718488 135.981C0.27565 137.393 0.916738 138.726 1.89179 139.767C2.23553 140.134 2.64164 140.458 3.45384 141.108C13.999 149.541 21.8573 155.469 29.6583 161.354C38.1504 167.76 46.5747 174.115 58.3237 183.594C61.8577 186.446 67 184.075 67 179.535V178.616V143.836H11C4.92487 143.836 0 138.911 0 132.836ZM3.27999 6C1.97061 6.82117 0.929048 8.07617 0.388561 9.62998C0.104603 10.4463 0.0281599 11.5656 0.00758082 13.4237C0.114526 10.5208 1.34634 7.90523 3.27999 6Z" fill="#FFCF54"/>
<path d="M184.241 77.185H229.668V82.855C229.668 89.245 228.588 95.2075 226.428 100.742C224.313 106.277 221.276 111.137 217.316 115.322C213.356 119.507 208.631 122.77 203.141 125.11C197.651 127.45 191.576 128.62 184.916 128.62C178.031 128.62 171.776 127.45 166.151 125.11C160.571 122.725 155.756 119.417 151.706 115.187C147.656 110.957 144.551 106.052 142.391 100.472C140.231 94.8475 139.151 88.8175 139.151 82.3825C139.151 75.9925 140.231 70.0075 142.391 64.4275C144.551 58.8025 147.656 53.8975 151.706 49.7125C155.756 45.4825 160.571 42.1975 166.151 39.8575C171.776 37.4725 178.031 36.28 184.916 36.28C190.541 36.28 195.491 36.8875 199.766 38.1025C204.086 39.3175 207.798 40.9375 210.903 42.9625C214.008 44.9875 216.641 47.215 218.801 49.645C220.961 52.03 222.761 54.37 224.201 56.665L205.031 65.71C203.186 62.875 200.666 60.4 197.471 58.285C194.321 56.17 190.136 55.1125 184.916 55.1125C181.271 55.1125 177.918 55.8325 174.858 57.2725C171.843 58.7125 169.233 60.6925 167.028 63.2125C164.823 65.6875 163.113 68.59 161.898 71.92C160.728 75.205 160.143 78.6925 160.143 82.3825C160.143 86.1175 160.728 89.6275 161.898 92.9125C163.113 96.1975 164.823 99.1 167.028 101.62C169.233 104.14 171.843 106.12 174.858 107.56C177.918 108.955 181.271 109.653 184.916 109.653C188.111 109.653 191.013 109.247 193.623 108.437C196.233 107.627 198.483 106.457 200.373 104.927C202.308 103.397 203.816 101.597 204.896 99.5275C206.021 97.4125 206.696 95.095 206.921 92.575H184.241V77.185ZM230.458 37.9H287.361V55.585H250.573V73.7425H287.023V90.8875H250.573V109.315H287.361V127H230.458V37.9ZM308.377 55.585H287.115V37.9H349.755V55.585H328.56V127H308.377V55.585ZM403.608 37.9H423.656L458.823 127H437.291L430.811 109.112H396.521L389.973 127H368.373L403.608 37.9ZM403.271 91.4275H424.128L413.801 62.2H413.598L403.271 91.4275ZM479.671 37.9H515.986C521.161 37.9 525.774 38.98 529.824 41.14C533.874 43.3 537.069 46.4275 539.409 50.5225C541.794 54.5725 542.986 59.41 542.986 65.035C542.986 70.66 541.974 75.2725 539.949 78.8725C537.969 82.4275 535.584 85.105 532.794 86.905C530.004 88.66 527.416 89.7175 525.031 90.0775L546.699 127H524.019L504.714 91.63H499.854V127H479.671V37.9ZM499.854 77.6575H508.764C512.364 77.6575 515.514 76.78 518.214 75.025C520.914 73.27 522.264 70.165 522.264 65.71C522.264 61.255 520.936 58.1725 518.281 56.4625C515.626 54.7075 512.499 53.83 508.899 53.83H499.854V77.6575ZM562.58 82.3825C562.58 87.4675 563.615 92.08 565.685 96.22C567.8 100.315 570.703 103.577 574.393 106.007C578.128 108.437 582.448 109.653 587.353 109.653C592.258 109.653 596.555 108.437 600.245 106.007C603.98 103.577 606.883 100.315 608.953 96.22C611.068 92.08 612.125 87.4675 612.125 82.3825C612.125 77.2975 611.068 72.7075 608.953 68.6125C606.883 64.5175 603.98 61.255 600.245 58.825C596.555 56.35 592.258 55.1125 587.353 55.1125C582.448 55.1125 578.128 56.35 574.393 58.825C570.703 61.255 567.8 64.5175 565.685 68.6125C563.615 72.7075 562.58 77.2975 562.58 82.3825ZM541.588 82.3825C541.588 75.9025 542.735 69.8725 545.03 64.2925C547.325 58.6675 550.543 53.7625 554.683 49.5775C558.823 45.3925 563.683 42.13 569.263 39.79C574.843 37.45 580.873 36.28 587.353 36.28C593.923 36.28 599.975 37.45 605.51 39.79C611.09 42.13 615.928 45.3925 620.023 49.5775C624.163 53.7625 627.358 58.6675 629.608 64.2925C631.903 69.8725 633.05 75.9025 633.05 82.3825C633.05 88.9075 631.948 94.9825 629.743 100.607C627.538 106.187 624.388 111.092 620.293 115.322C616.198 119.507 611.36 122.77 605.78 125.11C600.2 127.45 594.058 128.62 587.353 128.62C580.513 128.62 574.28 127.45 568.655 125.11C563.075 122.77 558.26 119.507 554.21 115.322C550.16 111.092 547.033 106.187 544.828 100.607C542.668 94.9825 541.588 88.9075 541.588 82.3825ZM651.976 82.3825C651.976 87.4675 653.011 92.08 655.081 96.22C657.196 100.315 660.098 103.577 663.788 106.007C667.523 108.437 671.843 109.653 676.748 109.653C681.653 109.653 685.951 108.437 689.641 106.007C693.376 103.577 696.278 100.315 698.348 96.22C700.463 92.08 701.521 87.4675 701.521 82.3825C701.521 77.2975 700.463 72.7075 698.348 68.6125C696.278 64.5175 693.376 61.255 689.641 58.825C685.951 56.35 681.653 55.1125 676.748 55.1125C671.843 55.1125 667.523 56.35 663.788 58.825C660.098 61.255 657.196 64.5175 655.081 68.6125C653.011 72.7075 651.976 77.2975 651.976 82.3825ZM630.983 82.3825C630.983 75.9025 632.131 69.8725 634.426 64.2925C636.721 58.6675 639.938 53.7625 644.078 49.5775C648.218 45.3925 653.078 42.13 658.658 39.79C664.238 37.45 670.268 36.28 676.748 36.28C683.318 36.28 689.371 37.45 694.906 39.79C700.486 42.13 705.323 45.3925 709.418 49.5775C713.558 53.7625 716.753 58.6675 719.003 64.2925C721.298 69.8725 722.446 75.9025 722.446 82.3825C722.446 88.9075 721.343 94.9825 719.138 100.607C716.933 106.187 713.783 111.092 709.688 115.322C705.593 119.507 700.756 122.77 695.176 125.11C689.596 127.45 683.453 128.62 676.748 128.62C669.908 128.62 663.676 127.45 658.051 125.11C652.471 122.77 647.656 119.507 643.606 115.322C639.556 111.092 636.428 106.187 634.223 100.607C632.063 94.9825 630.983 88.9075 630.983 82.3825ZM818.118 37.9V127H798.003V74.5525L798.881 59.635L795.438 76.7125L780.453 119.845H760.676L745.758 76.7125L742.383 59.635L743.261 74.5525V127H723.078V37.9H751.428L769.383 97.3675L770.598 104.455L771.813 97.3675L789.768 37.9H818.118Z" fill="#2E2E2E"/>
</svg>
